<?xml version="1.0"?>
<svg xmlns="http://www.w3.org/2000/svg" xmlns:xlink="http://www.w3.org/1999/xlink" version="1.1" id="Capa_1" x="0px" y="0px" viewBox="0 0 512 512" style="enable-background:new 0 0 512 512;" xml:space="preserve" width="512px" height="512px"><g transform="matrix(1 0 0 1 0 0)"><g>
	<g>
		<path d="M263.07,154.93c-3.9-3.91-10.24-3.91-14.14,0c-3.91,3.9-3.91,10.24,0,14.14c3.9,3.91,10.24,3.91,14.14,0    C266.98,165.17,266.98,158.83,263.07,154.93z" data-original="#000000" class="active-path" data-old_color="#000000" fill="#7386D5"/>
	</g>
</g><g>
	<g>
		<path d="M416,0H96C79.458,0,66,13.458,66,30v452c0,16.542,13.458,30,30,30h320c16.542,0,30-13.458,30-30V30    C446,13.458,432.542,0,416,0z M426,482c0,5.514-4.486,10-10,10H96c-5.514,0-10-4.486-10-10V30c0-5.514,4.486-10,10-10h320    c5.514,0,10,4.486,10,10V482z" data-original="#000000" class="active-path" data-old_color="#000000" fill="#7386D5"/>
	</g>
</g><g>
	<g>
		<path d="M156,252h-40c-5.523,0-10,4.478-10,10v40c0,5.522,4.477,10,10,10h40c5.523,0,10-4.478,10-10v-40    C166,256.478,161.523,252,156,252z M146,292h-20v-20h20V292z" data-original="#000000" class="active-path" data-old_color="#000000" fill="#7386D5"/>
	</g>
</g><g>
	<g>
		<path d="M156,332h-40c-5.523,0-10,4.478-10,10v40c0,5.522,4.477,10,10,10h40c5.523,0,10-4.478,10-10v-40    C166,336.478,161.523,332,156,332z M146,372h-20v-20h20V372z" data-original="#000000" class="active-path" data-old_color="#000000" fill="#7386D5"/>
	</g>
</g><g>
	<g>
		<path d="M156,412h-40c-5.523,0-10,4.478-10,10v40c0,5.522,4.477,10,10,10h40c5.523,0,10-4.478,10-10v-40    C166,416.478,161.523,412,156,412z M146,452h-20v-20h20V452z" data-original="#000000" class="active-path" data-old_color="#000000" fill="#7386D5"/>
	</g>
</g><g>
	<g>
		<path d="M236,252h-40c-5.523,0-10,4.478-10,10v40c0,5.522,4.477,10,10,10h40c5.523,0,10-4.478,10-10v-40    C246,256.478,241.523,252,236,252z M226,292h-20v-20h20V292z" data-original="#000000" class="active-path" data-old_color="#000000" fill="#7386D5"/>
	</g>
</g><g>
	<g>
		<path d="M236,332h-40c-5.523,0-10,4.478-10,10v40c0,5.522,4.477,10,10,10h40c5.523,0,10-4.478,10-10v-40    C246,336.478,241.523,332,236,332z M226,372h-20v-20h20V372z" data-original="#000000" class="active-path" data-old_color="#000000" fill="#7386D5"/>
	</g>
</g><g>
	<g>
		<path d="M236,412h-40c-5.523,0-10,4.478-10,10v40c0,5.522,4.477,10,10,10h40c5.523,0,10-4.478,10-10v-40    C246,416.478,241.523,412,236,412z M226,452h-20v-20h20V452z" data-original="#000000" class="active-path" data-old_color="#000000" fill="#7386D5"/>
	</g>
</g><g>
	<g>
		<path d="M316,252h-40c-5.523,0-10,4.478-10,10v40c0,5.522,4.477,10,10,10h40c5.523,0,10-4.478,10-10v-40    C326,256.478,321.523,252,316,252z M306,292h-20v-20h20V292z" data-original="#000000" class="active-path" data-old_color="#000000" fill="#7386D5"/>
	</g>
</g><g>
	<g>
		<path d="M316,332h-40c-5.523,0-10,4.478-10,10v40c0,5.522,4.477,10,10,10h40c5.523,0,10-4.478,10-10v-40    C326,336.478,321.523,332,316,332z M306,372h-20v-20h20V372z" data-original="#000000" class="active-path" data-old_color="#000000" fill="#7386D5"/>
	</g>
</g><g>
	<g>
		<path d="M316,412h-40c-5.523,0-10,4.478-10,10v40c0,5.522,4.477,10,10,10h40c5.523,0,10-4.478,10-10v-40    C326,416.478,321.523,412,316,412z M306,452h-20v-20h20V452z" data-original="#000000" class="active-path" data-old_color="#000000" fill="#7386D5"/>
	</g>
</g><g>
	<g>
		<path d="M396,252h-40c-5.523,0-10,4.478-10,10v40c0,5.522,4.477,10,10,10h40c5.523,0,10-4.478,10-10v-40    C406,256.478,401.523,252,396,252z M386,292h-20v-20h20V292z" data-original="#000000" class="active-path" data-old_color="#000000" fill="#7386D5"/>
	</g>
</g><g>
	<g>
		<path d="M396,332h-40c-5.523,0-10,4.478-10,10v120c0,5.522,4.477,10,10,10h40c5.523,0,10-4.478,10-10V342    C406,336.478,401.523,332,396,332z M386,452h-20V352h20V452z" data-original="#000000" class="active-path" data-old_color="#000000" fill="#7386D5"/>
	</g>
</g><g>
	<g>
		<path d="M356,152h-60c-5.523,0-10,4.478-10,10c0,5.522,4.477,10,10,10h60c5.523,0,10-4.478,10-10C366,156.478,361.523,152,356,152    z" data-original="#000000" class="active-path" data-old_color="#000000" fill="#7386D5"/>
	</g>
</g><g>
	<g>
		<path d="M396,40H116c-5.523,0-10,4.478-10,10v152c0,5.522,4.477,10,10,10h280c5.523,0,10-4.478,10-10V50    C406,44.478,401.523,40,396,40z M386,192H126V60h260V192z" data-original="#000000" class="active-path" data-old_color="#000000" fill="#7386D5"/>
	</g>
</g></g> </svg>
